<?xml version="1.0" encoding="utf-8"?>
<!-- Generated by IcoMoon.io -->
<!DOCTYPE svg PUBLIC "-//W3C//DTD SVG 1.1//EN" "http://www.w3.org/Graphics/SVG/1.1/DTD/svg11.dtd">
<svg version="1.1" xmlns="http://www.w3.org/2000/svg" xmlns:xlink="http://www.w3.org/1999/xlink" width="32" height="32" viewBox="0 0 32 32">
<g>
</g>
	<path d="M23.396 12.848c0.844 0 1.527 0.684 1.527 1.527v14.892c0 0.211-0.171 0.382-0.382 0.382h-7.255c-0.843 0-1.527-0.684-1.527-1.527v-13.747c0-0.843 0.684-1.527 1.527-1.527h6.11zM23.396 12.348h-6.109c-1.118 0-2.027 0.91-2.027 2.027v13.747c0 1.118 0.91 2.027 2.027 2.027h7.255c0.486 0 0.882-0.396 0.882-0.882v-14.892c0-1.117-0.909-2.027-2.028-2.027v0z" fill="#424242" />
	<path d="M21.105 9.653v1.538h1.301c0.38 0 0.688 0.241 0.688 0.539v0.539h-5.504v-0.539c0-0.297 0.309-0.539 0.688-0.539h1.3v-1.538h1.527zM21.105 9.153h-1.527c-0.276 0-0.5 0.224-0.5 0.5v1.038h-0.8c-0.655 0-1.188 0.466-1.188 1.039v0.539c0 0.276 0.224 0.5 0.5 0.5h5.504c0.276 0 0.5-0.224 0.5-0.5v-0.539c0-0.573-0.533-1.039-1.188-1.039h-0.801v-1.038c0-0.276-0.223-0.5-0.5-0.5v0z" fill="#424242" />
	<path d="M6.748 2.351c0.132 0 0.23 0.088 0.23 0.244l0.001 0.527c1.052 2.44 6.9 3.859 13.536 3.877l2.882-0.003v2.057l-2.89 0.003c-6.635 0.034-12.48 1.467-13.527 3.909v0.526c0.001 0.156-0.096 0.245-0.229 0.246v0c-0.133 0-0.236-0.1-0.235-0.252l-0.003-10.883c0-0.151 0.102-0.251 0.235-0.251v0zM6.748 1.851v0c-0.412 0-0.734 0.33-0.736 0.75l0.003 10.885c-0.001 0.206 0.076 0.397 0.216 0.538 0.137 0.138 0.322 0.214 0.52 0.214 0.203 0 0.388-0.077 0.523-0.215 0.134-0.137 0.207-0.326 0.207-0.531v-0.417c1.007-2.042 6.326-3.484 13.030-3.518l2.888-0.003c0.275 0 0.499-0.224 0.499-0.5v-2.058c0-0.133-0.053-0.26-0.146-0.354-0.094-0.094-0.221-0.146-0.354-0.146v0l-2.883 0.003c-6.704-0.018-12.025-1.448-13.036-3.487l-0.001-0.418c0-0.424-0.314-0.743-0.73-0.743v0z" fill="#424242" />
	<path d="M25.487 5.542v3.818c0 0.422-0.342 0.764-0.764 0.764h-0.763v-3.818c0-0.422 0.342-0.764 0.764-0.764h0.763zM25.487 5.042h-0.764c-0.696 0-1.264 0.567-1.264 1.264v3.818c0 0.276 0.224 0.5 0.5 0.5h0.764c0.697 0 1.264-0.567 1.264-1.264v-3.818c0-0.276-0.223-0.5-0.5-0.5v0z" fill="#424242" />
</svg>
