<?xml version="1.0" encoding="utf-8"?>
<!-- Generated by IcoMoon.io -->
<!DOCTYPE svg PUBLIC "-//W3C//DTD SVG 1.1//EN" "http://www.w3.org/Graphics/SVG/1.1/DTD/svg11.dtd">
<svg version="1.1" xmlns="http://www.w3.org/2000/svg" xmlns:xlink="http://www.w3.org/1999/xlink" width="32" height="32" viewBox="0 0 32 32">
<g>
</g>
	<path d="M21.854 5.744c0.122 0 0.239 0.025 0.347 0.083-0.301 0.601-0.301 0.601-0.301 0.601s0.599-0.231 1.177-0.231c0.145 0 0.287 0.014 0.419 0.050-0.602 0.453-2.049 0.694-2.439 1.598 0.059 0 0.151-0.002 0.271-0.002 1.191 0 5.123 0.248 6.025 5.638 0.811 0.088 1.44 0.169 1.985 0.169 0.57 0 1.048-0.089 1.54-0.351-0.453 0.633-0.783 1.205-3.193 1.537 0.635 0.235 1.838 0.489 2.694 0.489 0.241 0 0.454-0.021 0.62-0.067-0.516 0.516-1.098 1.208-2.541 1.208-0.243 0-0.51-0.019-0.806-0.063-1.022 2.862-3.675 9.221-14.493 9.853-1.747-0.089-8.285-0.18-12.16-5.69 0 0 2.32 1.915 5.549 1.915 1.738 0 3.739-0.555 5.783-2.264-1.307-0.349-3.225-0.61-1.395-2.528 0 0-2.748-0.534-3.441-1.95 0.084-0.196 0.9-0.733 1.742-0.733 0.062 0 0.124 0.003 0.185 0.009-0.662-0.421-3.225-1.235-3.104-3.042 1.567-0.030 1.719-0.030 1.719-0.030s-2.712-1.899-2.411-3.948c2.351 0.784 7.142 2.441 9.943 5.364 0.303-1.145 1.658-5.454 4.521-7.323 0.029 0.694 0.029 0.694 0.029 0.694s0.968-0.986 1.735-0.986zM30.879 13.299h0.005zM31 15.258h0.005zM21.854 5.244c-0.471 0-0.959 0.25-1.347 0.516-0.046-0.070-0.11-0.128-0.188-0.167-0.071-0.037-0.15-0.056-0.229-0.056-0.096 0-0.19 0.027-0.273 0.082-2.572 1.679-3.95 5.126-4.492 6.807-3.010-2.727-7.534-4.235-9.541-4.904-0.051-0.018-0.104-0.026-0.157-0.026-0.092 0-0.183 0.025-0.262 0.074-0.126 0.077-0.212 0.207-0.233 0.353-0.208 1.418 0.766 2.722 1.585 3.543-0.124 0.002-0.259 0.005-0.406 0.008-0.26 0.005-0.473 0.207-0.489 0.466-0.096 1.435 1.102 2.321 2.118 2.877-0.447 0.207-0.8 0.484-0.903 0.727-0.057 0.134-0.053 0.285 0.011 0.416 0.549 1.122 2.054 1.735 3.004 2.021-0.273 0.403-0.457 0.869-0.321 1.34 0.18 0.62 0.806 0.916 1.487 1.12-1.477 1.023-3.043 1.54-4.668 1.54-3.014 0-5.209-1.783-5.23-1.801-0.094-0.076-0.208-0.114-0.32-0.114-0.122 0-0.244 0.045-0.34 0.133-0.184 0.17-0.213 0.45-0.069 0.654 3.868 5.5 10.233 5.794 12.325 5.892l0.219 0.010c0.009 0 0.017 0 0.025 0 0.010 0 0.019 0 0.029-0.001 10.979-0.642 13.826-7.154 14.8-9.81 0.162 0.014 0.319 0.020 0.47 0.020 1.558 0 2.272-0.724 2.794-1.253l0.083-0.083c0.102-0.091 0.167-0.224 0.167-0.372 0-0.275-0.221-0.498-0.496-0.5-0.002 0-0.005 0-0.007 0-0.017 0-0.032 0.001-0.049 0.002-0.032 0.003-0.063 0.009-0.094 0.019-0.081 0.022-0.227 0.046-0.477 0.046-0.149 0-0.308-0.008-0.474-0.023 0.678-0.301 1.003-0.682 1.334-1.148l0.026-0.037c0.071-0.086 0.115-0.197 0.115-0.318 0-0.276-0.222-0.5-0.498-0.5v0c-0.002 0-0.004 0-0.005 0-0.019 0-0.038 0.001-0.058 0.003v0 0c-0.065 0.008-0.128 0.028-0.184 0.059-0.383 0.202-0.771 0.288-1.298 0.288-0.432 0-0.931-0.055-1.561-0.126-0.863-4.293-3.679-5.381-5.518-5.621 0.193-0.099 0.401-0.188 0.601-0.273 0.352-0.151 0.683-0.293 0.936-0.483 0.152-0.115 0.226-0.306 0.19-0.494-0.036-0.188-0.176-0.338-0.36-0.388-0.165-0.045-0.351-0.067-0.55-0.067-0.131 0-0.261 0.010-0.387 0.025-0.029-0.139-0.118-0.264-0.252-0.336-0.174-0.092-0.371-0.14-0.583-0.14v0z" fill="#424242" />
</svg>
