<?xml version="1.0" encoding="utf-8"?>
<!-- Generated by IcoMoon.io -->
<!DOCTYPE svg PUBLIC "-//W3C//DTD SVG 1.1//EN" "http://www.w3.org/Graphics/SVG/1.1/DTD/svg11.dtd">
<svg version="1.1" xmlns="http://www.w3.org/2000/svg" xmlns:xlink="http://www.w3.org/1999/xlink" width="32" height="32" viewBox="0 0 32 32">
<g>
</g>
	<path d="M4.222 13.278c1.501 0 2.722 1.221 2.722 2.722s-1.221 2.722-2.722 2.722c-1.501 0-2.722-1.221-2.722-2.722s1.221-2.722 2.722-2.722zM4.222 12.778c-1.78 0-3.222 1.443-3.222 3.222s1.442 3.222 3.222 3.222c1.779 0 3.222-1.442 3.222-3.222s-1.443-3.222-3.222-3.222v0z" fill="#424242" />
	<path d="M16 13.278c1.501 0 2.722 1.221 2.722 2.722s-1.221 2.722-2.722 2.722c-1.5 0-2.721-1.221-2.721-2.722s1.221-2.722 2.721-2.722zM16 12.778c-1.779 0-3.221 1.442-3.221 3.222s1.442 3.222 3.221 3.222c1.78 0 3.222-1.442 3.222-3.222s-1.442-3.222-3.222-3.222v0z" fill="#424242" />
	<path d="M27.778 13.278c1.501 0 2.722 1.221 2.722 2.722s-1.221 2.722-2.722 2.722c-1.5 0-2.721-1.221-2.721-2.722s1.22-2.722 2.721-2.722zM27.778 12.778c-1.779 0-3.221 1.442-3.221 3.222s1.442 3.222 3.221 3.222c1.78 0 3.222-1.443 3.222-3.222s-1.442-3.222-3.222-3.222v0z" fill="#424242" />
</svg>
