<?xml version="1.0" encoding="utf-8"?>
<!-- Generator: Adobe Illustrator 17.1.0, SVG Export Plug-In . SVG Version: 6.00 Build 0)  -->
<!DOCTYPE svg PUBLIC "-//W3C//DTD SVG 1.1//EN" "http://www.w3.org/Graphics/SVG/1.1/DTD/svg11.dtd">
<svg version="1.1" id="Layer_1" xmlns="http://www.w3.org/2000/svg" xmlns:xlink="http://www.w3.org/1999/xlink" x="0px" y="0px"
	 viewBox="0 0 390 120" enable-background="new 0 0 390 120" xml:space="preserve">
<g>
	<path id="path4146-5-3-7_1_" fill="#F5F5F5" d="M37.2,2c0.3,0,0.6,0,1,0H82c5.5,0,9.5,0.1,12.6,0.5c2.3,0.3,4.1,0.6,5.5,1
		c3.2,0.9,4.9,1.9,7,3.3c1.4,1,2.7,2.1,3.8,3.3c0.8,0.8,1.5,1.7,2.1,2.6c0.2,0.3,0.5,0.7,0.7,1c0.2,0.3,0.4,0.6,0.6,0.9
		c0.2,0.4,0.4,0.7,0.7,1.2c0.8,1.6,1.6,3.7,2,6c0.2,1.3,0.5,2.8,0.7,4.3c0.4,3.4,0.4,7.3,0.4,11.8l0,44.2c0,3.8,0,6.5-0.2,9.8
		c-0.2,3.8-0.9,7-1.8,9.7c-0.6,1.6-1.3,3.1-2.1,4.4c-1.2,1.8-2.6,3.5-4.2,5c-0.8,0.7-1.6,1.3-2.5,2c-1.2,0.8-2.3,1.5-3.6,2.1
		c-1.2,0.6-2.6,1.1-4.5,1.5c-1.3,0.3-2.9,0.6-4.7,0.8c-3.1,0.3-7,0.4-12.3,0.5l-43.9,0c-0.1,0-0.1,0-0.2,0c-4.6,0-8.1-0.1-11-0.4
		c-3.3-0.3-5.7-0.8-7.6-1.3c-0.9-0.2-1.6-0.5-2.3-0.8c-0.4-0.2-0.8-0.4-1.2-0.6c-1-0.5-1.8-1-2.7-1.6c-1.4-0.9-2.6-2-3.9-3.3
		c-1.1-1.2-2.2-2.5-3-3.8c-0.7-1.1-1.3-2.3-1.9-3.7c-0.1-0.3-0.3-0.7-0.4-1c-0.5-1.6-0.9-3.1-1.2-5.1c-0.2-1-0.3-1.9-0.4-2.9
		C2.1,90.3,2,86.6,2,82.2l0-44.2c0-6.1,0.2-11.7,1-15.9c0.7-3.6,1.8-6.2,3.3-8.5c1.7-2.7,4-5.1,6.7-6.9c1.6-1.1,3.1-1.9,5.2-2.7
		c1.1-0.4,2.4-0.7,3.9-1C25.5,2.4,30,2,37.2,2 M37.2,0c-6.8,0-11.7,0.3-15.4,1c-1.8,0.4-3.1,0.7-4.3,1.1c-2.4,0.9-4,1.8-5.6,2.9
		C9.1,7,6.6,9.5,4.7,12.6c-1.8,2.8-2.9,5.7-3.6,9.2c-0.7,3.8-1,8.8-1,16.2l0,44.2c0,4.5,0.1,8.2,0.4,11.5c0.1,1,0.2,2,0.4,3.1
		c0.3,1.8,0.7,3.4,1.3,5.3c0.1,0.4,0.3,0.7,0.4,1l0.1,0.2c0.6,1.5,1.3,2.8,2.1,4c1,1.6,2.1,3,3.3,4.1c1.3,1.4,2.7,2.5,4.2,3.5
		c1.1,0.7,2,1.3,2.9,1.7c0.4,0.2,0.8,0.4,1.2,0.6c0.9,0.4,1.7,0.7,2.6,0.9c2.6,0.7,5.1,1.2,7.9,1.4c3.1,0.2,6.8,0.4,11.2,0.4l0.2,0
		l43.9,0c5.5-0.1,9.4-0.1,12.5-0.5c1.7-0.2,3.3-0.5,5-0.8c1.9-0.4,3.4-1,4.9-1.7c1.5-0.7,2.7-1.4,4-2.3c0.9-0.6,1.8-1.3,2.7-2.1
		c1.7-1.6,3.2-3.4,4.5-5.4c0.9-1.4,1.7-3,2.3-4.8c1-2.9,1.7-6.4,1.9-10.3c0.2-3.3,0.2-6,0.3-9.9l0-44.2c0-4,0-8.3-0.4-12
		c-0.1-1.4-0.4-2.7-0.6-3.9l-0.1-0.5c-0.4-2.3-1.1-4.5-2.1-6.5c-0.2-0.5-0.5-0.9-0.7-1.3c-0.2-0.3-0.4-0.6-0.6-1
		c-0.2-0.4-0.5-0.8-0.7-1.1c-0.7-1-1.5-1.9-2.3-2.8c-1.4-1.5-2.7-2.7-4.2-3.6c-2.2-1.4-4.1-2.6-7.6-3.6c-1.8-0.5-3.7-0.9-5.8-1.1
		C91.9,0.2,88.1,0,82,0H38.2L37.2,0L37.2,0z"/>
	<path fill="#ED7219" d="M46.8,81.3l-8-8.8c-2.8-3-7.7-2-10.9-0.5c-0.9,0.4-1.1,1.5-0.4,2.2l13.4,14.6c0.5,0.6,1.1,1.1,1.7,1.6
		c4.1,3.2,19.7,13.7,33.8,1.1c12.8-11.5,6.9-26.5,3.7-32.5c-0.8-1.5-1.7-2.8-2.8-4.1l-2.5-3L56.3,31.5c0,0-2.2-2-5.4,0.9
		c-1.5,1.3-2,2.6-2.1,3.6c-0.1,0.9,0.3,1.7,0.9,2.4l12.3,13.5l0.3,0.3c0.2,0.2,0.1,0.5-0.1,0.6c-0.2,0.1-0.5,0.2-0.6,0L61,52
		L42.6,31.7c0,0-2.1-2-5.3,0.8c-1.5,1.3-1.9,2.6-2,3.5c-0.1,0.9,0.3,1.7,0.9,2.4l17.3,19.2l0.2,0.2c0.2,0.2,0.1,0.5-0.1,0.7
		c-0.2,0.2-0.4,0.2-0.6,0L51,56.3L32.6,35.9c0,0-2.1-2-5.3,0.8c-1.5,1.3-2,2.6-2,3.5c-0.1,0.9,0.2,1.8,0.8,2.4l19.7,21.8l0.3,0.3
		c0.2,0.2,0.1,0.4,0,0.6c-0.2,0.1-0.5,0.2-0.6,0l-0.1-0.1L29,47.4c0,0-2.1-2.1-5.3,0.8c-1.5,1.3-2,2.6-2,3.5
		c-0.1,0.9,0.2,1.8,0.8,2.4l21.9,24.3l2.5,2.7L46.8,81.3z"/>
	<path fill="#CB5B16" d="M41.1,90.2l25,27.8l15.9,0c5.2-0.1,9.2-0.1,12.3-0.5c1.9-0.2,3.4-0.5,4.7-0.8c1.9-0.4,3.3-1,4.5-1.5
		c1.4-0.6,2.5-1.3,3.6-2.1c0.9-0.6,1.7-1.3,2.5-2c1.6-1.5,3-3.2,4.2-5c0.8-1.3,1.5-2.7,2.1-4.4c1-2.7,1.6-5.9,1.8-9.7
		c0.2-3.2,0.2-6,0.2-9.8V54.6L88.8,24.1L41.1,90.2z"/>
	<path fill="#FFFFFF" d="M59.9,90.2c-4.5,0-9-1.4-13.1-4.1C30.6,75.5,36.7,57.5,39,52.3c0.3-0.7,0.7-1.4,1.1-2.1l10.7-16.7
		c0.7-1.1,2.6-1.3,3.4-0.2c1.8,2.1,3.3,4.9,3.4,7.6l11.3-17.3c0.6-0.9,1.6-1.6,2.6-1.7c1.2-0.2,2.9,0.2,4.5,1.2
		c2.3,1.5,2.8,3.2,2.7,4.3l2.1-3.2c0.6-0.9,1.6-1.6,2.6-1.7c1.2-0.2,2.9,0.2,4.5,1.2c4.1,2.7,2.4,5.9,2.4,5.9l-1.2,1.9
		c0.3-0.2,0.7-0.3,1.1-0.4c1.2-0.2,2.9,0.1,4.5,1.2c4.1,2.7,2.4,5.9,2.4,5.9l-4.1,6.3c0.3-0.1,0.6-0.2,0.9-0.3
		c0.2,0,0.5-0.1,0.8-0.1c1.2,0,2.4,0.4,3.7,1.3c4.1,2.7,2.5,5.9,2.5,5.9l-15,23l-2.3,3.2c-1,1.4-2.1,2.7-3.3,3.8
		C76.5,84.6,69.1,90.2,59.9,90.2z"/>
	<path fill="#CB5B16" d="M52.6,34c-0.2,0-0.4,0.1-0.6,0.3L41.3,50.9c-0.4,0.6-0.7,1.3-1,1.9c-2.1,5-7.9,22.1,7.3,32
		c3.9,2.6,8.1,3.9,12.3,3.9c8.6,0,15.7-5.3,19.1-8.5c1.1-1.1,2.2-2.3,3.1-3.6l2.3-3.2l15-22.9c0.1-0.1,0.9-2-2-3.9
		c-1.2-0.8-2.5-1.1-3.4-1c-0.6,0.1-1.2,0.5-1.6,1.1L82.3,62.4c-0.3,0.5-1.1,0.6-1.6,0.3c-0.5-0.4-0.7-1.1-0.4-1.6l15.5-23.7
		c0.1-0.2,0.9-2-1.9-3.9c-1.2-0.8-2.5-1.1-3.4-0.9c-0.6,0.1-1.2,0.5-1.6,1.1L74.5,55.4c-0.3,0.5-1.2,0.7-1.7,0.3
		c-0.5-0.4-0.7-1.1-0.4-1.6l16.7-25.5c0.1-0.2,0.9-2-1.9-3.9c-1.2-0.8-2.5-1.1-3.4-1c-0.7,0.1-1.2,0.5-1.6,1.1l-16.3,25
		c-0.4,0.5-1.1,0.7-1.6,0.3c-0.5-0.3-0.8-1.1-0.4-1.6l13.4-20.5c0.1-0.2,1-2-1.9-3.9c-1.2-0.8-2.5-1.1-3.4-1
		c-0.7,0.1-1.2,0.5-1.6,1.1L50.3,54.8c-0.2,0.3-0.5,0.4-0.8,0.3l-0.2,0c-0.2,0-0.4-0.2-0.5-0.4c-0.1-0.2-0.1-0.5,0.1-0.7l6.5-10
		c1.9-3,0-7.1-2.3-9.8C52.9,34,52.7,34,52.6,34z"/>
	<path fill="#FFFFFF" d="M61.3,98.2c-8.9,0-16.4-5.1-19.2-7.3c-0.6-0.5-1.2-1-1.8-1.6L26.9,74.7c-0.5-0.5-0.7-1.2-0.5-1.9
		c0.1-0.7,0.6-1.2,1.2-1.5c1.2-0.6,3.7-1.6,6.3-1.6c0.7,0,1.3,0.1,1.9,0.2L22,54.6c-0.7-0.8-1.1-1.9-1-3c0.1-1,0.6-2.5,2.3-4
		c1.3-1.1,2.5-1.7,3.8-1.7c0.4,0,0.8,0.1,1.1,0.2l-2.6-2.8c-0.7-0.8-1.1-1.9-1-3c0.1-1,0.6-2.5,2.3-4c1.3-1.1,2.5-1.7,3.8-1.7
		c1.5,0,2.4,0.8,2.5,0.9l1.5,1.7c-0.1-0.4-0.1-0.7-0.1-1.1c0.1-1.4,0.9-2.8,2.3-4c1.3-1.1,2.6-1.7,3.8-1.7c1.5,0,2.4,0.8,2.5,0.9
		l5.1,5.6c-0.1-0.3-0.1-0.6,0-0.9c0.1-1,0.6-2.5,2.3-4c1.3-1.2,2.6-1.7,3.9-1.7c1.5,0,2.4,0.8,2.5,0.9l18.4,20.4l2.6,3
		c1.1,1.3,2.1,2.7,2.9,4.2c3.2,6.1,9.3,21.5-3.9,33.4C72.2,96.1,67,98.2,61.3,98.2z"/>
	<path fill="#CB5B16" d="M33.9,71.2c-1.7,0-3.8,0.5-5.7,1.4c-0.2,0.1-0.3,0.3-0.4,0.5c0,0.2,0,0.4,0.2,0.6l13.4,14.6
		c0.5,0.5,1,1,1.6,1.5c2.7,2.1,9.9,7,18.3,7c5.3,0,10.2-2,14.5-5.9c12.4-11.2,6.6-25.8,3.5-31.6c-0.7-1.4-1.6-2.7-2.7-3.9l-2.5-3
		L55.8,32c0,0,0,0,0,0c0,0-0.5-0.4-1.4-0.4c-0.9,0-1.9,0.5-2.9,1.4c-1.4,1.3-1.8,2.4-1.8,3.1c-0.1,0.6,0.2,1.3,0.7,1.8l12.6,13.8
		c0.2,0.2,0.3,0.5,0.3,0.8c0,0.3-0.2,0.6-0.4,0.9c-0.5,0.4-1.3,0.4-1.7-0.1l-19-21.1v0c0,0-0.5-0.5-1.4-0.5c-0.9,0-1.8,0.5-2.8,1.3
		c-1.1,1-1.7,2-1.8,3c-0.1,0.6,0.2,1.3,0.7,1.8l17.5,19.4c0.2,0.2,0.3,0.5,0.3,0.9c0,0.3-0.2,0.7-0.4,0.9c-0.5,0.4-1.2,0.4-1.6-0.1
		L32.1,36.4v0c0,0-0.5-0.5-1.4-0.5c-0.9,0-1.8,0.5-2.8,1.3c-1.4,1.2-1.7,2.3-1.8,3.1c-0.1,0.7,0.2,1.3,0.6,1.8l20,22.1
		c0.2,0.2,0.3,0.5,0.3,0.8c0,0.3-0.2,0.6-0.4,0.8c-0.5,0.4-1.3,0.4-1.7,0L28.5,47.8c0,0,0,0,0,0c0,0-0.5-0.5-1.4-0.5
		c-0.9,0-1.8,0.4-2.8,1.3c-1.4,1.2-1.7,2.3-1.8,3.1c-0.1,0.7,0.2,1.3,0.6,1.8l24.4,27c0.2,0.2,0.3,0.6,0.1,0.8l-0.1,0.2
		c-0.1,0.2-0.3,0.4-0.6,0.4c-0.2,0-0.5-0.1-0.7-0.2l-8-8.8C37.3,71.8,35.8,71.2,33.9,71.2z"/>
	<path fill="#FFFFFF" d="M382,62.9c-1.2,5.9-4.3,12.2-11.8,12.2c-5,0-7.7-2.7-9-6c9.4-2.8,14.4-11.4,14.4-18.5
		c0-5.8-3.3-9.8-8.7-9.8c-7.5,0-14.9,9.2-14.9,21.5c0,1.6,0.1,3,0.4,4.4c-1,4-2.7,8.4-6.5,8.4c-2.6,0-3.9-2.5-3.9-5.2
		c0-9.7,4.4-21.2,4.4-22.3c0.4-2.2-1.1-5.4-4.7-5.4h-5c-1,0-1.9,0-5.1-0.4c-1.1-4-3.8-5.1-6.1-5.1c-2.5,0-4.9,1.7-4.9,4.5
		c0,2.8,1.7,4.9,4.2,6.2c-0.1,4.9-0.4,12.7-1.5,16.6c0,0.1-0.2,0.8-0.2,0.8c0,0.1-0.1,0.5-0.1,0.6c-1.1,4.2-3.7,9.9-6.8,9.9
		c-2.6,0-3.9-2.5-3.9-5.2c0-9.7,4.4-21.2,4.4-22.3c0.4-2.2-1.1-5.4-4.7-5.4h-5c-1,0-1.9,0-5.1-0.4c-1.1-4-3.8-5.1-6.1-5.1
		c-2.5,0-4.9,1.7-4.9,4.5c0,2.8,1.7,4.9,4.2,6.2c-0.1,4.5-0.4,11.7-1.3,15.8c0,0.1-0.1,0.3-0.1,0.4c-0.1,0.2-0.1,0.5-0.2,0.7
		c0,0,0,0.1,0,0.1c-1.4,5.5-4.5,10.8-11.5,10.8c-5,0-7.7-2.7-9-6c9.4-2.8,14.4-11.4,14.4-18.5c0-5.8-3.3-9.8-8.7-9.8
		c-7.5,0-14.9,9.2-14.9,21.5c0,1.6,0.1,3,0.4,4.4c-1,4-2.7,8.4-6,8.4c-2,0-3.3-1.4-3.3-4.5V39.9c5.1,0,8.8,0,16.6-0.2
		c3.1,0,4.8-6.1,2-6.1c-6.6,0-12.7,0-18.6,0v-17c0-2.3-2-4.3-5.2-4.3c-1.4,0-3.1,0.4-3.1,1.1c0,0.7,1,0.9,1,3.7v16.5
		c-5.2-0.1-8.7,0-8.7,0c-2.8,0-1.1,6.1,2,6.1c0,0,2.4,0.2,6.7,0.2v23.5c0,0.3-0.1,1.4-0.2,1.9c-0.6,3.7-4.4,9.8-7.2,9.8
		c-2.6,0-3.9-2.5-3.9-5.2c0-9.7,4.4-21.2,4.4-22.3c0.4-2.2-1.1-5.4-4.7-5.4h-5c-1,0-1.9,0-5.1-0.4c-1.1-4-3.8-5.1-6.1-5.1
		c-2.5,0-4.9,1.7-4.9,4.5c0,2.8,1.8,4.9,4.2,6.2c-0.1,4.9-0.5,13-1.6,16.9c0,0.1,0,0.2,0,0.3c0,0.1,0,0.1,0,0.2
		c-0.9,4.3-2.6,10.5-6.5,10.5c-2.3,0-3.3-2.3-3.3-4.5v-16c0-2.3-2-4.3-5.2-4.3c-1.4,0-2.5,0.7-2.5,1.7c0,0.7,0.4,1.3,0.4,3.1v14.9
		c-1.1,2.7-2.8,5-5.4,5c-3.4,0-5.5-2.9-5.5-8c0-14,8.6-20.3,16-20.3c1,0,1.9,0.2,2.8,0.2c1,0,1.3-0.6,1.3-2.2c0-2.5-1.8-4.1-4.5-4.1
		c-11.8,0-23.1,9.9-23.1,26.1c0,0.3,0,0.5,0,0.8c-1.6,2.6-3.7,4.1-8.5,4.3c1.5-3.5,2.5-8.7,2.5-14.2c0-9.6-3.7-17.1-11.3-17.1
		c-4.1,0-6.8,2.2-8.8,5.1c-0.1-2.2-2.1-4.2-5.2-4.2c-1.4,0-3.1,0.4-3.1,1.1s1,0.9,1,3.7v67.8c0,1.5,0.3,2.6,2.2,2.6
		c1.9,0,5.1-0.7,5.1-4.3V81c0.8,0.9,2.3,1.5,4.7,1.5c3.4,0,7.2-1.7,9.8-4.5c5.6,0,9.9-1.5,13-3.5c1.8,4.2,5.2,7,10.1,7
		c3.7,0,6.4-1.7,8.3-4c1.5,2.3,4.1,4,7.5,4c8,0,11.9-8.1,13.7-14.4c0-0.1,0.1-0.1,0.1-0.2c1.7-5.6,2.3-14.1,2.4-17.9h1.1h7.4
		c-3.1,8.3-4.9,15.2-4.9,21.5c0,8.5,5.4,11.1,10,11.1c4.2,0,7.3-2.2,9.5-5.3c1.4,3.7,4.3,5.3,8.1,5.3c5.1,0,8.6-3.3,10.8-7.3
		c3.2,4.7,8.4,7.3,13.7,7.3c14.3,0,18.2-11.7,18.8-17.7c0,0,0,0,0,0c1.1-5.3,1.6-11.7,1.6-14.8h1.1h7.4c-3.1,8.3-4.9,15.2-4.9,21.5
		c0,8.5,5.4,11.1,10,11.1c8,0,11.8-8,13.7-14.3c0-0.1,0.1-0.2,0.1-0.3c1.7-5.6,2.3-14.1,2.4-17.9h1.1h7.4
		c-3.1,8.3-4.9,15.2-4.9,21.5c0,8.5,5.4,11.1,10,11.1c5.1,0,8.5-3.3,10.8-7.3c3.2,4.7,8.4,7.3,13.7,7.3c14.3,0,18.2-11.7,18.8-17.7
		C388.3,60.5,382.9,58.5,382,62.9z M164.5,73c-4.5,0.4-7.8,1.4-9.1,3.4v-21c1.1-4.8,3.6-8.2,6.4-8.2c3.3,0,6.1,3.2,6.1,12.1
		C167.9,63,166.8,69.6,164.5,73z M271.5,62c-0.2-4.1,1.3-14.8,6-14.8c1.3,0,2,1.3,2,3.4c0,5.8-3.1,10.9-8,13.1
		C271.6,63.2,271.5,62.6,271.5,62z M359.9,62c-0.2-4.1,1.3-14.8,6-14.8c1.3,0,2,1.3,2,3.4c0,5.8-3.1,10.9-8,13.1
		C360,63.2,359.9,62.6,359.9,62z"/>
</g>
</svg>
