<?xml version="1.0" encoding="utf-8"?>
<!-- Generator: Adobe Illustrator 17.1.0, SVG Export Plug-In . SVG Version: 6.00 Build 0)  -->
<!DOCTYPE svg PUBLIC "-//W3C//DTD SVG 1.1//EN" "http://www.w3.org/Graphics/SVG/1.1/DTD/svg11.dtd">
<svg version="1.1" id="Layer_1" xmlns="http://www.w3.org/2000/svg" xmlns:xlink="http://www.w3.org/1999/xlink" x="0px" y="0px"
	 viewBox="0 0 140 60" enable-background="new 0 0 140 60" xml:space="preserve">
<path fill="#ED7219" d="M133.396,28.846c-0.644,3.276-2.364,6.771-6.556,6.771c-2.793,0-4.245-1.504-4.997-3.333
	c5.212-1.559,7.952-6.287,7.952-10.263c0-3.224-1.826-5.428-4.836-5.428c-4.138,0-8.222,5.106-8.222,11.929
	c0,0.865,0.079,1.684,0.224,2.454c-0.544,2.187-1.519,4.64-3.606,4.64c-1.452,0-2.15-1.398-2.15-2.901
	c0-5.373,2.418-11.715,2.418-12.361c0.215-1.237-0.609-3.01-2.58-3.01h-2.794c-0.537,0-1.074,0-2.849-0.213
	c-0.591-2.205-2.096-2.849-3.384-2.849c-1.398,0-2.687,0.967-2.687,2.472c0,1.558,0.968,2.687,2.31,3.439
	c-0.054,2.738-0.227,7.042-0.818,9.191c-0.014,0.052-0.096,0.416-0.105,0.468c-0.009,0.038-0.07,0.267-0.079,0.307
	c-0.583,2.3-2.027,5.457-3.778,5.457c-1.452,0-2.15-1.398-2.15-2.901c0-5.373,2.418-11.715,2.418-12.361
	c0.215-1.237-0.593-3.01-2.579-3.01h-2.794c-0.538,0-1.074,0-2.848-0.213c-0.592-2.205-2.096-2.849-3.386-2.849
	c-1.397,0-2.687,0.967-2.687,2.472c0,1.558,0.968,2.687,2.31,3.439c-0.049,2.512-0.234,6.466-0.721,8.765
	c-0.016,0.071-0.031,0.143-0.047,0.214c-0.03,0.128-0.06,0.254-0.092,0.37c-0.006,0.024-0.006,0.049-0.011,0.074
	c-0.757,3.031-2.518,5.999-6.382,5.999c-2.793,0-4.245-1.504-4.997-3.333c5.212-1.559,7.953-6.287,7.953-10.263
	c0-3.224-1.826-5.428-4.836-5.428c-4.138,0-8.221,5.106-8.221,11.929c0,0.863,0.079,1.678,0.223,2.448
	c-0.55,2.188-1.52,4.646-3.337,4.646c-1.13,0-1.828-0.754-1.828-2.473V16.111c2.849,0,4.88,0.007,9.179-0.1
	c1.719,0,2.683-3.376,1.125-3.376c-3.628,0-7.026-0.011-10.304-0.011V3.212c0-1.289-1.128-2.363-2.901-2.363
	c-0.753,0-1.719,0.214-1.719,0.59c0,0.376,0.536,0.484,0.536,2.042v9.142c-2.901-0.052-4.837,0-4.837,0
	c-1.557,0-0.589,3.379,1.13,3.379c0,0,1.343,0.109,3.707,0.109v12.985c0,0.139-0.05,0.751-0.103,1.077
	c-0.328,2.035-2.431,5.444-3.978,5.444c-1.451,0-2.15-1.398-2.15-2.901c0-5.373,2.417-11.715,2.417-12.361
	c0.216-1.237-0.624-3.01-2.578-3.01h-2.795c-0.538,0-1.075,0-2.849-0.213c-0.591-2.205-2.096-2.849-3.384-2.849
	c-1.398,0-2.688,0.967-2.688,2.472c0,1.558,0.969,2.687,2.31,3.439c-0.053,2.738-0.268,7.199-0.859,9.349
	c-0.014,0.052-0.017,0.108-0.026,0.161c-0.007,0.037-0.017,0.07-0.025,0.107c-0.484,2.366-1.451,5.805-3.601,5.805
	c-1.29,0-1.827-1.29-1.827-2.473v-8.865c0-1.29-1.128-2.367-2.902-2.367c-0.752,0-1.397,0.377-1.397,0.915
	c0,0.376,0.214,0.699,0.214,1.722v8.274c-0.59,1.504-1.558,2.794-3.008,2.794c-1.881,0-3.063-1.614-3.063-4.407
	c0-7.738,4.783-11.229,8.867-11.229c0.537,0,1.074,0.107,1.558,0.107c0.537,0,0.698-0.324,0.698-1.238
	c0-1.397-1.021-2.256-2.472-2.256c-6.556,0-12.788,5.481-12.788,14.456c0,0.153,0.009,0.301,0.013,0.452
	c-0.914,1.461-2.033,2.274-4.687,2.393c0.806-1.933,1.396-4.835,1.396-7.843c0-5.32-2.042-9.459-6.233-9.459
	c-2.257,0-3.761,1.235-4.89,2.849c-0.054-1.238-1.183-2.31-2.902-2.31c-0.752,0-1.719,0.213-1.719,0.59s0.536,0.483,0.536,2.042
	v37.509c0,0.805,0.163,1.449,1.237,1.449c1.075,0,2.848-0.375,2.848-2.364V38.894c0.431,0.483,1.289,0.807,2.58,0.807
	c1.88,0,3.976-0.914,5.428-2.472c3.092,0,5.466-0.817,7.169-1.942c0.978,2.342,2.866,3.876,5.616,3.876
	c2.042,0,3.548-0.967,4.622-2.204c0.806,1.29,2.257,2.204,4.138,2.204c4.452,0,6.607-4.486,7.575-7.985
	c0.017-0.043,0.038-0.079,0.053-0.128c0.968-3.119,1.289-7.793,1.343-9.889h0.591h4.084c-1.72,4.621-2.687,8.436-2.687,11.876
	c0,4.729,3.009,6.126,5.536,6.126c2.341,0,4.031-1.243,5.258-2.929c0.765,2.046,2.393,2.929,4.465,2.929
	c2.835,0,4.736-1.822,5.997-4.048c1.798,2.61,4.644,4.048,7.596,4.048c7.899,0,10.048-6.502,10.425-9.779c0-0.004,0-0.007,0-0.01
	c0.635-2.935,0.868-6.467,0.912-8.213h0.591h4.084c-1.719,4.621-2.686,8.436-2.686,11.876c0,4.729,3.009,6.126,5.535,6.126
	c4.434,0,6.54-4.449,7.558-7.941c0.023-0.059,0.05-0.109,0.07-0.172c0.968-3.119,1.289-7.793,1.344-9.889h0.59h4.085
	c-1.72,4.621-2.688,8.436-2.688,11.876c0,4.729,3.01,6.126,5.536,6.126c2.842,0,4.726-1.832,5.983-4.066
	c1.798,2.622,4.651,4.066,7.609,4.066c7.899,0,10.048-6.502,10.425-9.779C136.889,27.501,133.88,26.428,133.396,28.846z
	 M12.987,34.434c-2.471,0.214-4.298,0.753-5.051,1.882V24.707c0.591-2.632,1.988-4.512,3.547-4.512c1.827,0,3.385,1.773,3.385,6.716
	C14.867,28.9,14.277,32.554,12.987,34.434z M72.197,28.363c-0.108-2.258,0.698-8.168,3.331-8.168c0.698,0,1.129,0.697,1.129,1.88
	c0,3.225-1.719,6.018-4.407,7.254C72.25,29.007,72.197,28.683,72.197,28.363z M121.144,28.363c-0.108-2.258,0.698-8.168,3.332-8.168
	c0.699,0,1.129,0.697,1.129,1.88c0,3.225-1.72,6.018-4.407,7.254C121.198,29.007,121.144,28.683,121.144,28.363z"/>
</svg>
