<?xml version="1.0" encoding="utf-8"?>
<!-- Generated by IcoMoon.io -->
<!DOCTYPE svg PUBLIC "-//W3C//DTD SVG 1.1//EN" "http://www.w3.org/Graphics/SVG/1.1/DTD/svg11.dtd">
<svg version="1.1" xmlns="http://www.w3.org/2000/svg" xmlns:xlink="http://www.w3.org/1999/xlink" width="32" height="32" viewBox="0 0 32 32">
<g>
</g>
	<path d="M28.749 11.072c-0.471-0.308-0.939-0.464-1.39-0.464-0.006 0-0.013 0-0.020 0l1.056-1.616c0.263-0.474 0.389-1.525-0.871-2.348-0.462-0.302-0.921-0.456-1.364-0.456-0.023 0-0.047 0-0.070 0.001l0.059-0.089c0.263-0.472 0.392-1.523-0.869-2.347-0.467-0.305-0.931-0.46-1.379-0.46-0.11 0-0.213 0.009-0.307 0.025-0.424 0.073-0.806 0.326-1.047 0.695l-0.37 0.565c-0.142-0.341-0.422-0.697-0.914-1.018-0.468-0.305-0.932-0.46-1.379-0.46-0.11 0-0.212 0.010-0.307 0.026-0.425 0.073-0.808 0.326-1.049 0.694l-2.36 3.614-1.439-1.593c-0.071-0.070-0.439-0.391-1.034-0.391-0.499 0-0.993 0.219-1.471 0.65-0.501 0.453-0.719 0.896-0.808 1.245l-1.294-1.433c-0.066-0.065-0.436-0.4-1.038-0.4-0.491 0-0.98 0.217-1.454 0.645-0.434 0.391-0.704 0.818-0.804 1.27l-0.072-0.079c-0.065-0.065-0.435-0.402-1.038-0.402-0.491 0-0.979 0.217-1.453 0.644-0.641 0.58-0.816 1.147-0.848 1.52-0.039 0.429 0.109 0.862 0.405 1.19l0.452 0.5c-0.411 0.057-0.819 0.267-1.216 0.626-0.643 0.58-0.816 1.147-0.85 1.519-0.038 0.43 0.11 0.864 0.405 1.191l4.347 4.809c-0.162-0.024-0.33-0.037-0.501-0.037-0.779 0-1.453 0.243-1.88 0.447-0.28 0.134-0.475 0.385-0.534 0.689-0.060 0.306 0.027 0.614 0.238 0.844l4.506 4.918c0.195 0.213 0.406 0.408 0.625 0.579 0.969 0.756 3.553 2.514 6.615 2.514 1.98 0 3.796-0.733 5.397-2.179 1.719-1.553 2.491-3.277 2.727-4.936l0.434-0.619 5.054-7.734c0.255-0.485 0.363-1.54-0.89-2.359zM26.161 6.688c0.291 0 0.656 0.090 1.091 0.374 1.204 0.787 0.726 1.656 0.726 1.656l-4.784 7.319c-0.145-0.327-0.288-0.62-0.418-0.866-0.27-0.51-0.604-1.001-0.993-1.46l-0.468-0.553 3.915-5.968c0.163-0.249 0.41-0.433 0.702-0.483 0.070-0.012 0.147-0.019 0.229-0.019zM22.966 4.287c0.162-0.248 0.421-0.426 0.713-0.476 0.068-0.012 0.142-0.019 0.222-0.019 0.294 0 0.667 0.092 1.105 0.379 1.204 0.787 0.724 1.654 0.724 1.654l-4.632 7.079-0.175-0.207-2.005-2.22 4.048-6.19zM16.517 7.818l2.432-3.724c0.162-0.249 0.421-0.425 0.714-0.476 0.068-0.011 0.143-0.018 0.223-0.018 0.294 0 0.667 0.093 1.105 0.379 1.204 0.787 0.715 1.649 0.715 1.649l-3.006 4.607 0.064 0.071-2.247-2.488zM21.086 26.35c-1.685 1.523-3.439 2.050-5.061 2.050-2.926 0-5.422-1.718-6.307-2.409-0.203-0.158-0.39-0.333-0.563-0.522l-4.506-4.918c-0.214-0.234-0.144-0.608 0.143-0.745 0.499-0.238 1.086-0.399 1.665-0.399 0.665 0 1.319 0.212 1.814 0.76l2.342 2.593c0.023 0.024 0.056 0.035 0.091 0.035 0.045 0 0.095-0.018 0.127-0.046 0.058-0.052 0.070-0.14 0.016-0.2l-0.101-0.112-0.383-0.471-7.382-8.166c-0.199-0.22-0.304-0.516-0.278-0.812 0.029-0.322 0.193-0.746 0.687-1.192 0.439-0.396 0.817-0.512 1.11-0.512 0.421 0 0.667 0.241 0.667 0.241l5.519 6.104c0.023 0.024 0.056 0.035 0.091 0.035 0.046 0 0.095-0.018 0.127-0.046 0.059-0.052 0.071-0.14 0.016-0.201l-0.101-0.112-6.628-7.34c-0.199-0.22-0.305-0.515-0.278-0.811 0.028-0.322 0.192-0.746 0.687-1.192 0.44-0.398 0.822-0.515 1.117-0.515 0.42 0 0.667 0.237 0.667 0.237l6.868 7.612c0.024 0.026 0.055 0.038 0.087 0.038 0.037 0 0.075-0.015 0.105-0.042 0.059-0.052 0.073-0.173 0.018-0.233l-0.070-0.078-5.817-6.467c-0.199-0.22-0.315-0.506-0.288-0.802 0.028-0.322 0.184-0.739 0.678-1.185 0.441-0.398 0.823-0.516 1.119-0.516 0.42 0 0.667 0.235 0.667 0.235l6.399 7.086c0.024 0.027 0.060 0.039 0.098 0.039 0.041 0 0.083-0.015 0.113-0.041 0.059-0.052 0.082-0.145 0.027-0.205l-0.088-0.099-4.143-4.558c-0.199-0.22-0.316-0.505-0.29-0.801 0.028-0.322 0.198-0.751 0.692-1.197 0.446-0.403 0.834-0.521 1.135-0.521 0.417 0 0.666 0.227 0.666 0.227l6.182 6.845 0.857 1.012c0.358 0.423 0.673 0.882 0.933 1.372 1.069 2.019 3.048 7.066-1.246 10.945zM29.218 13.157l-4.994 7.642c0.040-1.682-0.403-3.237-0.885-4.411l3.101-4.778c0.162-0.249 0.408-0.434 0.7-0.484 0.066-0.011 0.139-0.018 0.218-0.018 0.297 0 0.676 0.095 1.117 0.383 1.205 0.786 0.743 1.666 0.743 1.666z" fill="#424242" />
</svg>
