<?xml version="1.0" encoding="utf-8"?>
<!-- Generated by IcoMoon.io -->
<!DOCTYPE svg PUBLIC "-//W3C//DTD SVG 1.1//EN" "http://www.w3.org/Graphics/SVG/1.1/DTD/svg11.dtd">
<svg version="1.1" xmlns="http://www.w3.org/2000/svg" xmlns:xlink="http://www.w3.org/1999/xlink" width="32" height="32" viewBox="0 0 32 32">
<g>
</g>
	<path d="M17.225 5.703c0.513 0 0.904 0.006 0.904 0.006h4.224c0 0 0.989 0.095 0.989 1.534 0 0.666-0.205 1.080-0.424 1.316-0.202 0.218-0.492 0.321-0.789 0.321l-2.292-0.020c-0.081 0-0.135 0.080-0.134 0.158 0.001 0.076 0.064 0.158 0.14 0.158l2.948-0.001c0 0 0.989 0.075 0.989 1.514 0 0.627-0.182 1.014-0.387 1.255-0.204 0.24-0.512 0.363-0.827 0.366l-2.202 0.017c-0.082 0-0.162 0.091-0.161 0.169 0.001 0.076 0.050 0.146 0.126 0.146h1.029l1.924-0.005c0 0 0.989 0.072 0.989 1.511 0 0.666-0.205 1.072-0.424 1.309-0.202 0.217-0.492 0.337-0.789 0.337l-2.74 0.001c-0.081 0-0.139 0.068-0.138 0.146 0.001 0.076 0.061 0.169 0.138 0.169h0.030l2.499 0.005c0 0 0.989 0.062 0.989 1.5 0 0.666-0.205 1.072-0.425 1.309-0.202 0.217-0.492 0.338-0.788 0.338l-7.080 0.005c-0.076 0-0.137 0.093-0.138 0.169v4.251c0 1.388-1.556 2.253-2.695 2.59-0.043 0.013-0.086 0.019-0.128 0.019-0.25 0-0.467-0.212-0.465-0.479l0.033-4.687c0.009-1.198-0.406-2.37-1.192-3.273-1.356-1.559-2.116-2.86-2.542-3.816-0.429-0.964-0.811-2.234-0.649-3.276 0.69-4.452 5.056-4.471 7.124-4.969 0.321-0.078 1.492-0.093 2.334-0.093zM17.225 5.203c-2.011 0-2.343 0.080-2.452 0.106-0.298 0.072-0.646 0.133-1.023 0.2-2.183 0.387-5.836 1.034-6.478 5.179-0.202 1.301 0.344 2.787 0.687 3.557 0.562 1.26 1.444 2.587 2.622 3.941 0.698 0.802 1.077 1.847 1.069 2.942l-0.033 4.687c-0.002 0.263 0.099 0.51 0.285 0.697 0.183 0.185 0.424 0.286 0.68 0.286 0.091 0 0.181-0.013 0.269-0.039 1.476-0.436 3.054-1.472 3.054-3.069v-3.92l2.411-0.004h4.306c0.44 0 0.861-0.181 1.155-0.498 0.254-0.274 0.558-0.783 0.558-1.649 0-0.727-0.221-1.21-0.507-1.519 0.143-0.079 0.273-0.179 0.384-0.299 0.255-0.274 0.558-0.783 0.558-1.649 0-1.115-0.521-1.66-0.995-1.883 0.334-0.394 0.503-0.924 0.503-1.576 0-1.070-0.479-1.616-0.938-1.856 0.241-0.287 0.5-0.784 0.5-1.591 0-1.498-0.943-1.984-1.441-2.032l-4.271-0.002c0-0.003-0.391-0.009-0.903-0.009v0z" fill="#424242" />
</svg>
