<?xml version="1.0" encoding="utf-8"?>
<!-- Generated by IcoMoon.io -->
<!DOCTYPE svg PUBLIC "-//W3C//DTD SVG 1.1//EN" "http://www.w3.org/Graphics/SVG/1.1/DTD/svg11.dtd">
<svg version="1.1" xmlns="http://www.w3.org/2000/svg" xmlns:xlink="http://www.w3.org/1999/xlink" width="32" height="32" viewBox="0 0 32 32">
<g>
</g>
	<path d="M17.24 4.343c3.863 0 6.994 3.131 6.994 6.994v1.629c0 3.863-3.131 6.994-6.994 6.994s-6.995-3.131-6.995-6.994v-1.628c0-3.864 3.132-6.995 6.995-6.995zM17.24 3.843c-4.133 0-7.495 3.362-7.495 7.494v1.628c0 4.132 3.362 7.494 7.495 7.494 4.132 0 7.494-3.362 7.494-7.494v-1.629c0-4.131-3.362-7.493-7.494-7.493v0z" fill="#424242" />
	<path d="M11.048 20.797c0.119 0 0.23 0.004 0.295 0.017 0.017 0 0.035 0 0.052 0 2.412 0 2.93 1.214 5.844 1.214 2.936 0 3.594-1.214 5.91-1.214 0.197 0 0.787 0 0.787 0 3.005 0 5.439 2.435 5.439 5.439 0 1.067-0.866 1.934-1.934 1.934h-20.405c-1.068 0-1.934-0.866-1.934-1.934 0-3.004 2.436-5.439 5.439-5.439 0.001 0 0.27-0.017 0.507-0.017zM11.048 20.297c-0.253 0-0.539 0.018-0.539 0.018-0.001 0-0.001 0-0.002 0-3.242 0-5.905 2.664-5.905 5.938 0 1.342 1.092 2.434 2.434 2.434h20.407c1.342 0 2.434-1.092 2.434-2.434 0-3.275-2.664-5.939-5.939-5.939h-0.788c-1.18 0-1.979 0.297-2.752 0.584-0.833 0.309-1.693 0.629-3.158 0.629-1.433 0-2.252-0.314-3.044-0.617-0.766-0.294-1.559-0.597-2.801-0.597h-0.013c-0.085-0.010-0.193-0.016-0.334-0.016v0z" fill="#424242" />
</svg>
