<?xml version="1.0" encoding="utf-8"?>
<!-- Generated by IcoMoon.io -->
<!DOCTYPE svg PUBLIC "-//W3C//DTD SVG 1.1//EN" "http://www.w3.org/Graphics/SVG/1.1/DTD/svg11.dtd">
<svg version="1.1" xmlns="http://www.w3.org/2000/svg" xmlns:xlink="http://www.w3.org/1999/xlink" width="32" height="32" viewBox="0 0 32 32">
<g>
</g>
	<path d="M15.999 29.123c-3.504 0-6.8-1.364-9.28-3.842-2.479-2.481-3.843-5.777-3.843-9.281 0-3.502 1.364-6.797 3.843-9.279 2.48-2.479 5.776-3.844 9.28-3.844 3.504 0 6.8 1.365 9.28 3.844 2.477 2.48 3.843 5.775 3.845 9.279-0.002 3.507-1.367 6.803-3.845 9.281-2.48 2.478-5.776 3.842-9.28 3.842zM15.999 3.377c-3.37 0-6.541 1.313-8.927 3.697-2.384 2.388-3.696 5.558-3.696 8.926 0 3.37 1.312 6.541 3.696 8.928 2.386 2.383 5.557 3.695 8.927 3.695 3.37 0 6.541-1.312 8.927-3.695 2.383-2.384 3.696-5.555 3.698-8.928-0.002-3.371-1.315-6.541-3.698-8.926-2.386-2.384-5.557-3.697-8.927-3.697zM15.999 26.344c-3.374 0-6.274-2.333-6.748-5.427-0.002-0.008-0.003-0.015-0.003-0.022-0.001-0.007-0.001-0.014-0.001-0.020 0-0.022 0.003-0.045 0.009-0.065 0.010-0.036 0.027-0.069 0.052-0.098 0.023-0.028 0.055-0.051 0.090-0.066 0.025-0.011 0.052-0.018 0.081-0.020 0.008-0.001 0.016-0.001 0.024-0.001h12.997c0.004 0 0.012-0.001 0.020 0.001 0.030 0.002 0.059 0.009 0.084 0.021 0.035 0.016 0.065 0.038 0.090 0.066 0.024 0.028 0.042 0.062 0.052 0.1v0 0c0.005 0.021 0.008 0.041 0.008 0.062 0 0.006 0 0.011-0.001 0.017 0 0.009-0.001 0.018-0.003 0.026-0.477 3.094-3.378 5.426-6.751 5.426zM9.796 21.125c0.565 2.71 3.178 4.719 6.203 4.719 3.024 0 5.638-2.009 6.205-4.719h-12.408zM10.364 16.014c-0.968 0-1.756-0.788-1.756-1.757s0.788-1.758 1.756-1.758c0.97 0 1.758 0.789 1.758 1.758 0 0.969-0.788 1.757-1.758 1.757zM8.046 14.257c0 1.279 1.040 2.319 2.318 2.319 1.279 0 2.32-1.041 2.32-2.319 0-1.279-1.041-2.32-2.32-2.32-1.278-0.001-2.318 1.040-2.318 2.32zM21.489 16.014c-0.968 0-1.756-0.788-1.756-1.757s0.788-1.758 1.756-1.758c0.97 0 1.758 0.789 1.758 1.758 0 0.969-0.788 1.757-1.758 1.757zM19.171 14.257c0 1.279 1.040 2.319 2.318 2.319 1.279 0 2.32-1.041 2.32-2.319 0-1.279-1.041-2.32-2.32-2.32-1.278-0.001-2.318 1.040-2.318 2.32z" fill="#424242" />
</svg>
